<svg xmlns="http://www.w3.org/2000/svg" viewBox="-5.0 -2.0 110 110" width="512" height="512">
    <rect x="-5.0" y="-2.0" width="110" height="110" fill='none'></rect>
    <path d="M31.67 11.92 L30.08 14.33 L18.08 50.17 L18.08 51.17 L18.67 51.75 L32.33 51.58 L32.75 50.33 L32.25 48.33 L32.25 44.00 L33.08 39.83 L35.08 35.50 L39.17 30.42 L44.67 26.92 L50.33 25.08 L58.33 23.92 L69.83 24.25 L70.75 23.50 L74.08 13.00 L73.33 11.92 L31.67 11.92Z M60.50 32.42 L52.83 33.25 L47.67 35.08 L44.50 37.08 L41.25 41.00 L39.08 46.17 L39.08 53.67 L41.25 58.67 L46.67 63.92 L55.83 67.75 L64.50 70.08 L68.00 72.08 L69.92 75.00 L69.58 78.50 L67.67 80.75 L65.17 82.08 L61.33 82.42 L58.33 81.75 L54.25 77.67 L52.92 73.17 L52.17 72.25 L38.00 73.25 L36.92 74.00 L36.92 76.17 L38.08 80.83 L40.08 84.83 L42.25 87.83 L45.83 90.75 L50.17 92.75 L55.33 93.75 L68.33 93.58 L76.67 90.75 L79.67 88.58 L82.58 85.33 L84.75 81.50 L85.92 77.83 L86.25 73.33 L85.75 68.83 L84.75 66.00 L82.92 63.00 L78.67 59.08 L70.33 55.25 L57.50 51.92 L55.33 50.58 L54.58 49.50 L54.42 47.17 L55.08 45.67 L56.50 44.25 L58.67 43.42 L61.83 43.42 L65.50 45.08 L67.58 47.50 L68.58 50.50 L69.50 51.08 L83.17 50.25 L84.00 49.92 L84.42 49.00 L83.92 46.00 L82.58 42.50 L80.75 39.50 L78.33 36.92 L75.33 35.08 L70.50 33.25 L60.50 32.42Z M17.59 56.00 L19.91 56.00 L19.91 84.00 L23.40 93.00 L14.10 93.00 L17.59 84.00 L17.59 56.00Z" fill="#FFFFFF" fill-rule="evenodd"></path>
</svg>