<svg fill="none" height="42" viewBox="0 0 202 42" width="202" xmlns="http://www.w3.org/2000/svg" xmlns:xlink="http://www.w3.org/1999/xlink"><clipPath id="a"><path d="m0 0h202v41.9997h-202z"></path></clipPath><g clip-path="url(#a)" fill="#00005A"><path clip-rule="evenodd" d="m142.579 10.8195h9.418l5.535 10.0396 5.545-10.0396h9.353l-10.669 17.2841v12.4622h-8.491v-12.4622zm-11.813 0h8.501v29.7463h-8.501zm-21.577 12.0429h3.668c.758-.0598 1.508-.1923 2.244-.396.549-.1212 1.039-.452 1.381-.9317.346-.4967.532-1.1022.529-1.7238.024-.4135-.04-.8276-.185-1.2109-.146-.3834-.371-.726-.657-1.002-.945-.6299-2.056-.9043-3.161-.7804h-3.733v6.0448zm-8.512 17.7034v-29.7463h14.133c2.022-.0861 4.045.1613 5.998.7337 1.371.4624 2.554 1.4156 3.355 2.7021.881 1.4198 1.326 3.1024 1.273 4.8102.059 1.4398-.243 2.87-.876 4.1392-.632 1.2692-1.571 2.3301-2.716 3.0703-.931.5512-1.936.9441-2.978 1.1647.786.269 1.532.6614 2.212 1.1647.503.4664.959.9896 1.359 1.5607.447.5734.844 1.1893 1.187 1.8402l4.1 8.6304h-9.581l-4.531-9.0963c-.359-.8831-.885-1.6762-1.542-2.3294-.608-.4558-1.332-.696-2.072-.6871h-.755v12.0429zm-31.9551-29.7463h8.5336v10.4007h9.2672v-10.4007h8.5228v29.7463h-8.5228v-12.0313h-9.2672v12.0313h-8.4796v-29.7463zm-27.7368 0h22.7203v6.3476h-14.2191v4.7286h13.1941v6.0681h-13.1941v5.8235h14.6398v6.7436h-23.141zm-29.1286 19.9046 8.0697-.5474c.0904 1.1664.4624 2.2868 1.0788 3.2495.4457.6004 1.0182 1.0767 1.6696 1.3887.6514.3121 1.3626.451 2.074.405 1.0042.0719 1.9981-.2554 2.7942-.9201.302-.255.547-.5799.7169-.9509.1699-.3709.2604-.7784.2648-1.1922-.0051-.3972-.0919-.7883-.2542-1.1449-.1623-.3565-.3961-.6696-.6844-.9166-1.3046-.9079-2.7775-1.4963-4.3153-1.7237-3.7256-.9085-6.3795-2.112-7.9618-3.6106-.7714-.703-1.3869-1.5838-1.8014-2.5775-.4144-.9936-.6173-2.075-.5937-3.1645-.0182-1.5585.395-3.0875 1.1868-4.3909.9128-1.4347 2.1957-2.5484 3.6896-3.2029 2.152-.8743 4.4454-1.2705 6.7427-1.1647 3.5098 0 6.1854.7066 8.0266 2.1197.9545.8091 1.7373 1.8296 2.2956 2.9929s.8792 2.4423.9409 3.7507l-7.9942.5125c-.022-.5517-.1488-1.0927-.3725-1.5894-.2238-.4966-.5397-.9383-.9282-1.2976-.3885-.3594-.8412-.6286-1.3301-.7912-.4889-.1625-1.0035-.2148-1.5119-.1536-.7949-.0655-1.5856.1737-2.2332.6755-.2343.1953-.4242.4458-.5551.7325-.1309.2866-.1993.6018-.2001.9214.0069.2496.0658.4944.1723.7162.1064.2217.2577.4148.4426.5649.8634.5862 1.8359.96 2.8482 1.0948 2.7413.5329 5.4141 1.4165 7.9618 2.6323 1.4335.7192 2.6491 1.862 3.5062 3.296.7273 1.3327 1.1006 2.856 1.0788 4.4026.0059 1.8732-.5049 3.7058-1.4672 5.2644-.9892 1.6355-2.4096 2.9134-4.078 3.6688-2.1022.8998-4.3531 1.324-6.6133 1.2463-4.6605 0-7.8971-.9667-9.7095-2.9234-1.7785-1.992-2.8319-4.6097-2.9668-7.3726z" fill-rule="evenodd"></path><path clip-rule="evenodd" d="m9.64496 17.1327c.00617-1.9826.55414-3.9192 1.57514-5.5672 1.1658-1.8429 2.8096-3.27315 4.7253-4.11143 2.7553-1.11642 5.6903-1.6234 8.6307-1.49081 1.3899-.00919 2.7784.09594 4.1535.31447l2.0174-6.27773h-21.71695l-6.678 19.928h7.64895c-.23667-.9098-.35648-1.8503-.35604-2.7953z" fill-rule="evenodd"></path><path d="m3.45212 22.1743h-1.02487v14.582h1.02487z"></path><g clip-rule="evenodd" fill-rule="evenodd"><path d="m5.86884 40.8594h-5.86884l2.9344-6.336z"></path><path d="m202 25.6939c0 9.0055-6.762 16.3058-15.103 16.3058-8.342 0-15.104-7.3003-15.104-16.3058 0-9.0054 6.762-16.30572 15.104-16.30572 8.341 0 15.103 7.30032 15.103 16.30572zm-10.565 7.2975c-1.345.9706-2.926 1.4887-4.544 1.4887-2.166-.0031-4.243-.9326-5.776-2.585-1.532-1.6525-2.396-3.8933-2.402-6.2317-.002-1.7466.476-3.4547 1.373-4.908.897-1.4534 2.174-2.5867 3.668-3.2567s3.139-.8465 4.726-.5072 3.045 1.1793 4.189 2.4135c1.145 1.2342 1.925 2.8072 2.241 4.5201.317 1.7128.156 3.4885-.463 5.1024s-1.667 2.9934-3.012 3.9639z"></path></g></g></svg>